<svg width="19" height="19" viewBox="0 0 19 19" fill="none" xmlns="http://www.w3.org/2000/svg">
<path d="M17.7466 8.04163H1.58665C0.894449 8.04163 0.333313 8.65537 0.333313 9.41246V9.58746C0.333313 10.3446 0.894449 10.9583 1.58665 10.9583H17.7466C18.4388 10.9583 19 10.3446 19 9.58746V9.41246C19 8.65537 18.4388 8.04163 17.7466 8.04163Z" fill="#231F20"/>
<path d="M17.7466 15.3334H1.58665C0.894449 15.3334 0.333313 15.9471 0.333313 16.7042V16.8792C0.333313 17.6363 0.894449 18.25 1.58665 18.25H17.7466C18.4388 18.25 19 17.6363 19 16.8792V16.7042C19 15.9471 18.4388 15.3334 17.7466 15.3334Z" fill="#231F20"/>
<path d="M17.7466 0.75H1.58665C0.894449 0.75 0.333313 1.36374 0.333313 2.12083V2.29583C0.333313 3.05292 0.894449 3.66667 1.58665 3.66667H17.7466C18.4388 3.66667 19 3.05292 19 2.29583V2.12083C19 1.36374 18.4388 0.75 17.7466 0.75Z" fill="#231F20"/>
</svg>
