<svg width="13" height="13" viewBox="0 0 13 13" fill="none" xmlns="http://www.w3.org/2000/svg">
<path d="M12.3796 11.3454L9.62305 8.58887C10.2867 7.70538 10.645 6.62998 10.6438 5.525C10.6438 2.70254 8.34746 0.40625 5.525 0.40625C2.70254 0.40625 0.40625 2.70254 0.40625 5.525C0.40625 8.34746 2.70254 10.6438 5.525 10.6438C6.62998 10.645 7.70538 10.2867 8.58887 9.62305L11.3454 12.3796C11.4849 12.5043 11.6669 12.5709 11.854 12.5657C12.0411 12.5604 12.2191 12.4838 12.3514 12.3514C12.4838 12.2191 12.5604 12.0411 12.5657 11.854C12.5709 11.6669 12.5043 11.4849 12.3796 11.3454ZM1.86875 5.525C1.86875 4.80186 2.08319 4.09496 2.48494 3.4937C2.88669 2.89243 3.45772 2.4238 4.12581 2.14707C4.79391 1.87033 5.52906 1.79793 6.2383 1.939C6.94754 2.08008 7.59902 2.42831 8.11036 2.93964C8.6217 3.45098 8.96992 4.10246 9.111 4.8117C9.25207 5.52094 9.17967 6.25609 8.90294 6.92419C8.6262 7.59228 8.15757 8.16331 7.5563 8.56506C6.95504 8.96681 6.24814 9.18125 5.525 9.18125C4.55566 9.18009 3.62635 8.7945 2.94093 8.10908C2.2555 7.42365 1.86991 6.49434 1.86875 5.525Z" fill="#FFFDFD"/>
</svg>
